# xmcd CD database file
#
# Track frame offsets:
#	150
#	14390
#	29954
#	44360
#	58510
#	71330
#	88217
#	101883
#	116111
#	127630
#	140996
#	153904
#	168696
#	183579
#	195307
#	209688
#	222991
#
# Disc length: 3150 seconds
#
# Revision: 0
# Processed by: cddbd v1.5.2PL0 Copyright (c) Steve Scherf et al.
# Submitted via: CDex 1.60beta1
#
DISCID=070c4c11
DTITLE=Vari - Easy Lounge CD 1
DYEAR=1900
DGENRE=Jazz
TTITLE0=Dean Martin - Rainbows are back in style
TTITLE1=Nat King Cole - Too young
TTITLE2=Bobby Darin - Mack The Knife
TTITLE3=Bing Crosby - Moonlight becomes you
TTITLE4=Frank Sinatra - The coffee song
TTITLE5=Mel Tormé - It's a blue world
TTITLE6=Coleman Hawkins and His All Stars Jam Band - Crazy Rhythm
TTITLE7=Perry Como - I'm Always Chasing Rainbows
TTITLE8=Stan Kenton - Lover
TTITLE9=Nat King Cole - A cottage for sale
TTITLE10=Count Basie Orchestra - Swingin' the blues
TTITLE11=Tommy Dorsey and His Orchestra - Coctails for two
TTITLE12=Bing Crosby - Just one more chance
TTITLE13=Frank Sinatra - You and the night and the music
TTITLE14=Nat King Cole -  The best man
TTITLE15=Perry Como -  Me and my shadow
TTITLE16=Dean Martin - In the cool, cool, cool of the evening
EXTD=
EXTT0=
EXTT1=
EXTT2=
EXTT3=
EXTT4=
EXTT5=
EXTT6=
EXTT7=
EXTT8=
EXTT9=
EXTT10=
EXTT11=
EXTT12=
EXTT13=
EXTT14=
EXTT15=
EXTT16=
PLAYORDER=
